  0
SECTION
  2
HEADER
  9
$ACADVER
  1
AC1014
  9
$HANDSEED
  5
FFFF
  9
$MEASUREMENT
 70
     1
  0
ENDSEC
  0
SECTION
  2
TABLES
  0
TABLE
  2
VPORT
  5
8
330
0
100
AcDbSymbolTable
 70
     4
  0
VPORT
  5
2E
330
8
100
AcDbSymbolTableRecord
100
AcDbViewportTableRecord
  2
*ACTIVE
 70
     0
 10
0.0
 20
0.0
 11
1.0
 21
1.0
 12
210.0
 22
148.5
 13
0.0
 23
0.0
 14
10.0
 24
10.0
 15
10.0
 25
10.0
 16
0.0
 26
0.0
 36
1.0
 17
0.0
 27
0.0
 37
0.0
 40
341.0
 41
1.24
 42
50.0
 43
0.0
 44
0.0
 50
0.0
 51
0.0
 71
     0
 72
   100
 73
     1
 74
     3
 75
     0
 76
     0
 77
     0
 78
     0
  0
ENDTAB
  0
TABLE
  2
LTYPE
  5
5
330
0
100
AcDbSymbolTable
 70
     1
  0
LTYPE
  5
14
330
5
100
AcDbSymbolTableRecord
100
AcDbLinetypeTableRecord
  2
BYBLOCK
 70
     0
  3

 72
    65
 73
     0
 40
0.0
  0
LTYPE
  5
15
330
5
100
AcDbSymbolTableRecord
100
AcDbLinetypeTableRecord
  2
BYLAYER
 70
     0
  3

 72
    65
 73
     0
 40
0.0
  0
LTYPE
  5
16
330
5
100
AcDbSymbolTableRecord
100
AcDbLinetypeTableRecord
  2
CONTINUOUS
 70
     0
  3
Solid line
 72
    65
 73
     0
 40
0.0
  0
ENDTAB
  0
TABLE
  2
LAYER
  5
2
100
AcDbSymbolTable
 70
11
  0
LAYER
  5
50
100
AcDbSymbolTableRecord
100
AcDbLayerTableRecord
  2
0
 70
0
  6
CONTINUOUS
  0
LAYER
  5
51
100
AcDbSymbolTableRecord
100
AcDbLayerTableRecord
  2
Plate
 70
0
  6
CONTINUOUS
  0
LAYER
  5
52
100
AcDbSymbolTableRecord
100
AcDbLayerTableRecord
  2
Board
 70
0
  6
CONTINUOUS
  0
LAYER
  5
53
100
AcDbSymbolTableRecord
100
AcDbLayerTableRecord
  2
Panel
 70
0
  6
CONTINUOUS
  0
LAYER
  5
54
100
AcDbSymbolTableRecord
100
AcDbLayerTableRecord
  2
Lettering
 70
0
  6
CONTINUOUS
  0
LAYER
  5
55
100
AcDbSymbolTableRecord
100
AcDbLayerTableRecord
  2
Logo
 70
0
  6
CONTINUOUS
  0
LAYER
  5
56
100
AcDbSymbolTableRecord
100
AcDbLayerTableRecord
  2
Knob_Scales_Group
 70
0
  6
CONTINUOUS
  0
LAYER
  5
57
100
AcDbSymbolTableRecord
100
AcDbLayerTableRecord
  2
h.osc1
 70
0
  6
CONTINUOUS
  0
LAYER
  5
58
100
AcDbSymbolTableRecord
100
AcDbLayerTableRecord
  2
Arcs
 70
0
  6
CONTINUOUS
  0
LAYER
  5
59
100
AcDbSymbolTableRecord
100
AcDbLayerTableRecord
  2
Ticks
 70
0
  6
CONTINUOUS
  0
LAYER
  5
5a
100
AcDbSymbolTableRecord
100
AcDbLayerTableRecord
  2
Labels
 70
0
  6
CONTINUOUS
  0
ENDTAB
  0
TABLE
  2
STYLE
  5
3
330
0
100
AcDbSymbolTable
 70
     1
  0
STYLE
  5
11
330
3
100
AcDbSymbolTableRecord
100
AcDbTextStyleTableRecord
  2
STANDARD
 70
     0
 40
0.0
 41
1.0
 50
0.0
 71
     0
 42
2.5
  3
txt
  4

  0
ENDTAB
  0
TABLE
  2
VIEW
  5
6
330
0
100
AcDbSymbolTable
 70
     0
  0
ENDTAB
  0
TABLE
  2
UCS
  5
7
330
0
100
AcDbSymbolTable
 70
     0
  0
ENDTAB
  0
TABLE
  2
APPID
  5
9
330
0
100
AcDbSymbolTable
 70
     2
  0
APPID
  5
12
330
9
100
AcDbSymbolTableRecord
100
AcDbRegAppTableRecord
  2
ACAD
 70
     0
  0
ENDTAB
  0
TABLE
  2
DIMSTYLE
  5
A
330
0
100
AcDbSymbolTable
 70
     1
  0
DIMSTYLE
105
27
330
A
100
AcDbSymbolTableRecord
100
AcDbDimStyleTableRecord
  2
ISO-25
 70
     0
  3

  4

  5

  6

  7

 40
1.0
 41
2.5
 42
0.625
 43
3.75
 44
1.25
 45
0.0
 46
0.0
 47
0.0
 48
0.0
140
2.5
141
2.5
142
0.0
143
0.03937007874016
144
1.0
145
0.0
146
1.0
147
0.625
 71
     0
 72
     0
 73
     0
 74
     0
 75
     0
 76
     0
 77
     1
 78
     8
170
     0
171
     3
172
     1
173
     0
174
     0
175
     0
176
     0
177
     0
178
     0
270
     2
271
     2
272
     2
273
     2
274
     3
340
11
275
     0
280
     0
281
     0
282
     0
283
     0
284
     8
285
     0
286
     0
287
     3
288
     0
  0
ENDTAB
  0
TABLE
  2
BLOCK_RECORD
  5
1
330
0
100
AcDbSymbolTable
 70
     1
  0
BLOCK_RECORD
  5
1F
330
1
100
AcDbSymbolTableRecord
100
AcDbBlockTableRecord
  2
*MODEL_SPACE
  0
BLOCK_RECORD
  5
1B
330
1
100
AcDbSymbolTableRecord
100
AcDbBlockTableRecord
  2
*PAPER_SPACE
  0
ENDTAB
  0
ENDSEC
  0
SECTION
  2
BLOCKS
  0
BLOCK
  5
20
330
1F
100
AcDbEntity
  8
0
100
AcDbBlockBegin
  2
*MODEL_SPACE
 70
     0
 10
0.0
 20
0.0
 30
0.0
  3
*MODEL_SPACE
  1

  0
ENDBLK
  5
21
330
1F
100
AcDbEntity
  8
0
100
AcDbBlockEnd
  0
BLOCK
  5
1C
330
1B
100
AcDbEntity
 67
     1
  8
0
100
AcDbBlockBegin
  2
*PAPER_SPACE
  1

  0
ENDBLK
  5
1D
330
1B
100
AcDbEntity
 67
     1
  8
0
100
AcDbBlockEnd
  0
ENDSEC
  0
SECTION
  2
ENTITIES
  0
LWPOLYLINE
  5
100
100
AcDbEntity
  8
Panel
 62
7
100
AcDbPolyline
 90
4
 70
1
 10
106.404430
 20
151.262211
 30
0.0
 10
108.804430
 20
151.262211
 30
0.0
 10
108.804430
 20
135.662211
 30
0.0
 10
106.404430
 20
135.662211
 30
0.0
  0
LWPOLYLINE
  5
101
100
AcDbEntity
  8
Panel
 62
7
100
AcDbPolyline
 90
4
 70
1
 10
132.840410
 20
151.262211
 30
0.0
 10
135.240410
 20
151.262211
 30
0.0
 10
135.240410
 20
135.662211
 30
0.0
 10
132.840410
 20
135.662211
 30
0.0
  0
LWPOLYLINE
  5
102
100
AcDbEntity
  8
Panel
 62
7
100
AcDbPolyline
 90
4
 70
1
 10
119.622410
 20
151.262211
 30
0.0
 10
122.022410
 20
151.262211
 30
0.0
 10
122.022410
 20
135.662211
 30
0.0
 10
119.622410
 20
135.662211
 30
0.0
  0
LWPOLYLINE
  5
103
100
AcDbEntity
  8
Panel
 62
7
100
AcDbPolyline
 90
4
 70
1
 10
146.058410
 20
151.262211
 30
0.0
 10
148.458410
 20
151.262211
 30
0.0
 10
148.458410
 20
135.662211
 30
0.0
 10
146.058410
 20
135.662211
 30
0.0
  0
LWPOLYLINE
  5
104
100
AcDbEntity
  8
Panel
 62
7
100
AcDbPolyline
 90
4
 70
1
 10
159.276430
 20
151.262211
 30
0.0
 10
161.676430
 20
151.262211
 30
0.0
 10
161.676430
 20
135.662211
 30
0.0
 10
159.276430
 20
135.662211
 30
0.0
  0
SPLINE
  5
105
100
AcDbEntity
  8
Panel
 62
7
100
AcDbSpline
 70
8
 71
3
 72
8
 73
4
 74
0
 40
0
 40
0
 40
0
 40
0
 40
1
 40
1
 40
1
 40
1
 10
196.564670
 20
67.870270
 30
0.0
 10
195.149052
 20
67.870270
 30
0.0
 10
193.872825
 20
67.017522
 30
0.0
 10
193.331092
 20
65.709662
 30
0.0
  0
SPLINE
  5
106
100
AcDbEntity
  8
Panel
 62
7
100
AcDbSpline
 70
8
 71
3
 72
8
 73
4
 74
0
 40
0
 40
0
 40
0
 40
0
 40
1
 40
1
 40
1
 40
1
 10
193.331092
 20
65.709662
 30
0.0
 10
192.789358
 20
64.401802
 30
0.0
 10
193.088803
 20
62.896389
 30
0.0
 10
194.089796
 20
61.895396
 30
0.0
  0
SPLINE
  5
107
100
AcDbEntity
  8
Panel
 62
7
100
AcDbSpline
 70
8
 71
3
 72
8
 73
4
 74
0
 40
0
 40
0
 40
0
 40
0
 40
1
 40
1
 40
1
 40
1
 10
194.089796
 20
61.895396
 30
0.0
 10
195.090789
 20
60.894403
 30
0.0
 10
196.596202
 20
60.594958
 30
0.0
 10
197.904062
 20
61.136692
 30
0.0
  0
SPLINE
  5
108
100
AcDbEntity
  8
Panel
 62
7
100
AcDbSpline
 70
8
 71
3
 72
8
 73
4
 74
0
 40
0
 40
0
 40
0
 40
0
 40
1
 40
1
 40
1
 40
1
 10
197.904062
 20
61.136692
 30
0.0
 10
199.211922
 20
61.678425
 30
0.0
 10
200.064670
 20
62.954652
 30
0.0
 10
200.064670
 20
64.370270
 30
0.0
  0
SPLINE
  5
109
100
AcDbEntity
  8
Panel
 62
7
100
AcDbSpline
 70
8
 71
3
 72
8
 73
4
 74
0
 40
0
 40
0
 40
0
 40
0
 40
1
 40
1
 40
1
 40
1
 10
200.064670
 20
64.370270
 30
0.0
 10
200.064670
 20
66.303267
 30
0.0
 10
198.497667
 20
67.870270
 30
0.0
 10
196.564670
 20
67.870270
 30
0.0
  0
LWPOLYLINE
  5
10a
100
AcDbEntity
  8
Panel
 62
7
100
AcDbPolyline
 90
4
 70
1
 10
172.494460
 20
151.262211
 30
0.0
 10
174.894460
 20
151.262211
 30
0.0
 10
174.894460
 20
135.662211
 30
0.0
 10
172.494460
 20
135.662211
 30
0.0
  0
SPLINE
  5
10b
100
AcDbEntity
  8
Panel
 62
7
100
AcDbSpline
 70
8
 71
3
 72
8
 73
4
 74
0
 40
0
 40
0
 40
0
 40
0
 40
1
 40
1
 40
1
 40
1
 10
177.467250
 20
67.870270
 30
0.0
 10
176.051632
 20
67.870270
 30
0.0
 10
174.775405
 20
67.017522
 30
0.0
 10
174.233672
 20
65.709662
 30
0.0
  0
SPLINE
  5
10c
100
AcDbEntity
  8
Panel
 62
7
100
AcDbSpline
 70
8
 71
3
 72
8
 73
4
 74
0
 40
0
 40
0
 40
0
 40
0
 40
1
 40
1
 40
1
 40
1
 10
174.233672
 20
65.709662
 30
0.0
 10
173.691938
 20
64.401802
 30
0.0
 10
173.991383
 20
62.896389
 30
0.0
 10
174.992376
 20
61.895396
 30
0.0
  0
SPLINE
  5
10d
100
AcDbEntity
  8
Panel
 62
7
100
AcDbSpline
 70
8
 71
3
 72
8
 73
4
 74
0
 40
0
 40
0
 40
0
 40
0
 40
1
 40
1
 40
1
 40
1
 10
174.992376
 20
61.895396
 30
0.0
 10
175.993369
 20
60.894403
 30
0.0
 10
177.498782
 20
60.594958
 30
0.0
 10
178.806642
 20
61.136692
 30
0.0
  0
SPLINE
  5
10e
100
AcDbEntity
  8
Panel
 62
7
100
AcDbSpline
 70
8
 71
3
 72
8
 73
4
 74
0
 40
0
 40
0
 40
0
 40
0
 40
1
 40
1
 40
1
 40
1
 10
178.806642
 20
61.136692
 30
0.0
 10
180.114502
 20
61.678425
 30
0.0
 10
180.967250
 20
62.954652
 30
0.0
 10
180.967250
 20
64.370270
 30
0.0
  0
SPLINE
  5
10f
100
AcDbEntity
  8
Panel
 62
7
100
AcDbSpline
 70
8
 71
3
 72
8
 73
4
 74
0
 40
0
 40
0
 40
0
 40
0
 40
1
 40
1
 40
1
 40
1
 10
180.967250
 20
64.370270
 30
0.0
 10
180.967250
 20
65.298528
 30
0.0
 10
180.598501
 20
66.188766
 30
0.0
 10
179.942124
 20
66.845144
 30
0.0
  0
SPLINE
  5
110
100
AcDbEntity
  8
Panel
 62
7
100
AcDbSpline
 70
8
 71
3
 72
8
 73
4
 74
0
 40
0
 40
0
 40
0
 40
0
 40
1
 40
1
 40
1
 40
1
 10
179.942124
 20
66.845144
 30
0.0
 10
179.285746
 20
67.501521
 30
0.0
 10
178.395508
 20
67.870270
 30
0.0
 10
177.467250
 20
67.870270
 30
0.0
  0
LWPOLYLINE
  5
111
100
AcDbEntity
  8
Panel
 62
7
100
AcDbPolyline
 90
1
 70
1
 10
196.564670
 20
67.870270
 30
0.0
  0
SPLINE
  5
112
100
AcDbEntity
  8
Panel
 62
7
100
AcDbSpline
 70
8
 71
3
 72
8
 73
4
 74
0
 40
0
 40
0
 40
0
 40
0
 40
1
 40
1
 40
1
 40
1
 10
158.369840
 20
67.870270
 30
0.0
 10
156.954222
 20
67.870270
 30
0.0
 10
155.677995
 20
67.017522
 30
0.0
 10
155.136262
 20
65.709662
 30
0.0
  0
SPLINE
  5
113
100
AcDbEntity
  8
Panel
 62
7
100
AcDbSpline
 70
8
 71
3
 72
8
 73
4
 74
0
 40
0
 40
0
 40
0
 40
0
 40
1
 40
1
 40
1
 40
1
 10
155.136262
 20
65.709662
 30
0.0
 10
154.594528
 20
64.401802
 30
0.0
 10
154.893973
 20
62.896389
 30
0.0
 10
155.894966
 20
61.895396
 30
0.0
  0
SPLINE
  5
114
100
AcDbEntity
  8
Panel
 62
7
100
AcDbSpline
 70
8
 71
3
 72
8
 73
4
 74
0
 40
0
 40
0
 40
0
 40
0
 40
1
 40
1
 40
1
 40
1
 10
155.894966
 20
61.895396
 30
0.0
 10
156.895959
 20
60.894403
 30
0.0
 10
158.401372
 20
60.594958
 30
0.0
 10
159.709232
 20
61.136692
 30
0.0
  0
SPLINE
  5
115
100
AcDbEntity
  8
Panel
 62
7
100
AcDbSpline
 70
8
 71
3
 72
8
 73
4
 74
0
 40
0
 40
0
 40
0
 40
0
 40
1
 40
1
 40
1
 40
1
 10
159.709232
 20
61.136692
 30
0.0
 10
161.017092
 20
61.678425
 30
0.0
 10
161.869840
 20
62.954652
 30
0.0
 10
161.869840
 20
64.370270
 30
0.0
  0
SPLINE
  5
116
100
AcDbEntity
  8
Panel
 62
7
100
AcDbSpline
 70
8
 71
3
 72
8
 73
4
 74
0
 40
0
 40
0
 40
0
 40
0
 40
1
 40
1
 40
1
 40
1
 10
161.869840
 20
64.370270
 30
0.0
 10
161.869840
 20
66.303267
 30
0.0
 10
160.302837
 20
67.870270
 30
0.0
 10
158.369840
 20
67.870270
 30
0.0
  0
LWPOLYLINE
  5
117
100
AcDbEntity
  8
Panel
 62
7
100
AcDbPolyline
 90
1
 70
1
 10
177.467250
 20
67.870270
 30
0.0
  0
SPLINE
  5
118
100
AcDbEntity
  8
Panel
 62
7
100
AcDbSpline
 70
8
 71
3
 72
8
 73
4
 74
0
 40
0
 40
0
 40
0
 40
0
 40
1
 40
1
 40
1
 40
1
 10
139.272430
 20
67.870270
 30
0.0
 10
137.856812
 20
67.870270
 30
0.0
 10
136.580585
 20
67.017522
 30
0.0
 10
136.038852
 20
65.709662
 30
0.0
  0
SPLINE
  5
119
100
AcDbEntity
  8
Panel
 62
7
100
AcDbSpline
 70
8
 71
3
 72
8
 73
4
 74
0
 40
0
 40
0
 40
0
 40
0
 40
1
 40
1
 40
1
 40
1
 10
136.038852
 20
65.709662
 30
0.0
 10
135.497118
 20
64.401802
 30
0.0
 10
135.796563
 20
62.896389
 30
0.0
 10
136.797556
 20
61.895396
 30
0.0
  0
SPLINE
  5
11a
100
AcDbEntity
  8
Panel
 62
7
100
AcDbSpline
 70
8
 71
3
 72
8
 73
4
 74
0
 40
0
 40
0
 40
0
 40
0
 40
1
 40
1
 40
1
 40
1
 10
136.797556
 20
61.895396
 30
0.0
 10
137.798549
 20
60.894403
 30
0.0
 10
139.303962
 20
60.594958
 30
0.0
 10
140.611822
 20
61.136692
 30
0.0
  0
SPLINE
  5
11b
100
AcDbEntity
  8
Panel
 62
7
100
AcDbSpline
 70
8
 71
3
 72
8
 73
4
 74
0
 40
0
 40
0
 40
0
 40
0
 40
1
 40
1
 40
1
 40
1
 10
140.611822
 20
61.136692
 30
0.0
 10
141.919682
 20
61.678425
 30
0.0
 10
142.772430
 20
62.954652
 30
0.0
 10
142.772430
 20
64.370270
 30
0.0
  0
SPLINE
  5
11c
100
AcDbEntity
  8
Panel
 62
7
100
AcDbSpline
 70
8
 71
3
 72
8
 73
4
 74
0
 40
0
 40
0
 40
0
 40
0
 40
1
 40
1
 40
1
 40
1
 10
142.772430
 20
64.370270
 30
0.0
 10
142.772430
 20
65.298528
 30
0.0
 10
142.403681
 20
66.188766
 30
0.0
 10
141.747304
 20
66.845144
 30
0.0
  0
SPLINE
  5
11d
100
AcDbEntity
  8
Panel
 62
7
100
AcDbSpline
 70
8
 71
3
 72
8
 73
4
 74
0
 40
0
 40
0
 40
0
 40
0
 40
1
 40
1
 40
1
 40
1
 10
141.747304
 20
66.845144
 30
0.0
 10
141.090926
 20
67.501521
 30
0.0
 10
140.200688
 20
67.870270
 30
0.0
 10
139.272430
 20
67.870270
 30
0.0
  0
LWPOLYLINE
  5
11e
100
AcDbEntity
  8
Panel
 62
7
100
AcDbPolyline
 90
1
 70
1
 10
158.369840
 20
67.870270
 30
0.0
  0
SPLINE
  5
11f
100
AcDbEntity
  8
Panel
 62
7
100
AcDbSpline
 70
8
 71
3
 72
8
 73
4
 74
0
 40
0
 40
0
 40
0
 40
0
 40
1
 40
1
 40
1
 40
1
 10
120.175060
 20
67.870290
 30
0.0
 10
118.759442
 20
67.870290
 30
0.0
 10
117.483215
 20
67.017542
 30
0.0
 10
116.941482
 20
65.709682
 30
0.0
  0
SPLINE
  5
120
100
AcDbEntity
  8
Panel
 62
7
100
AcDbSpline
 70
8
 71
3
 72
8
 73
4
 74
0
 40
0
 40
0
 40
0
 40
0
 40
1
 40
1
 40
1
 40
1
 10
116.941482
 20
65.709682
 30
0.0
 10
116.399748
 20
64.401822
 30
0.0
 10
116.699193
 20
62.896409
 30
0.0
 10
117.700186
 20
61.895416
 30
0.0
  0
SPLINE
  5
121
100
AcDbEntity
  8
Panel
 62
7
100
AcDbSpline
 70
8
 71
3
 72
8
 73
4
 74
0
 40
0
 40
0
 40
0
 40
0
 40
1
 40
1
 40
1
 40
1
 10
117.700186
 20
61.895416
 30
0.0
 10
118.701179
 20
60.894423
 30
0.0
 10
120.206592
 20
60.594978
 30
0.0
 10
121.514452
 20
61.136712
 30
0.0
  0
SPLINE
  5
122
100
AcDbEntity
  8
Panel
 62
7
100
AcDbSpline
 70
8
 71
3
 72
8
 73
4
 74
0
 40
0
 40
0
 40
0
 40
0
 40
1
 40
1
 40
1
 40
1
 10
121.514452
 20
61.136712
 30
0.0
 10
122.822312
 20
61.678445
 30
0.0
 10
123.675060
 20
62.954672
 30
0.0
 10
123.675060
 20
64.370290
 30
0.0
  0
SPLINE
  5
123
100
AcDbEntity
  8
Panel
 62
7
100
AcDbSpline
 70
8
 71
3
 72
8
 73
4
 74
0
 40
0
 40
0
 40
0
 40
0
 40
1
 40
1
 40
1
 40
1
 10
123.675060
 20
64.370290
 30
0.0
 10
123.675060
 20
65.298548
 30
0.0
 10
123.306311
 20
66.188786
 30
0.0
 10
122.649934
 20
66.845164
 30
0.0
  0
SPLINE
  5
124
100
AcDbEntity
  8
Panel
 62
7
100
AcDbSpline
 70
8
 71
3
 72
8
 73
4
 74
0
 40
0
 40
0
 40
0
 40
0
 40
1
 40
1
 40
1
 40
1
 10
122.649934
 20
66.845164
 30
0.0
 10
121.993556
 20
67.501541
 30
0.0
 10
121.103318
 20
67.870290
 30
0.0
 10
120.175060
 20
67.870290
 30
0.0
  0
LWPOLYLINE
  5
125
100
AcDbEntity
  8
Panel
 62
7
100
AcDbPolyline
 90
1
 70
1
 10
139.272430
 20
67.870270
 30
0.0
  0
SPLINE
  5
126
100
AcDbEntity
  8
Panel
 62
7
100
AcDbSpline
 70
8
 71
3
 72
8
 73
4
 74
0
 40
0
 40
0
 40
0
 40
0
 40
1
 40
1
 40
1
 40
1
 10
101.077690
 20
67.870290
 30
0.0
 10
99.662072
 20
67.870290
 30
0.0
 10
98.385845
 20
67.017542
 30
0.0
 10
97.844112
 20
65.709682
 30
0.0
  0
SPLINE
  5
127
100
AcDbEntity
  8
Panel
 62
7
100
AcDbSpline
 70
8
 71
3
 72
8
 73
4
 74
0
 40
0
 40
0
 40
0
 40
0
 40
1
 40
1
 40
1
 40
1
 10
97.844112
 20
65.709682
 30
0.0
 10
97.302378
 20
64.401822
 30
0.0
 10
97.601823
 20
62.896409
 30
0.0
 10
98.602816
 20
61.895416
 30
0.0
  0
SPLINE
  5
128
100
AcDbEntity
  8
Panel
 62
7
100
AcDbSpline
 70
8
 71
3
 72
8
 73
4
 74
0
 40
0
 40
0
 40
0
 40
0
 40
1
 40
1
 40
1
 40
1
 10
98.602816
 20
61.895416
 30
0.0
 10
99.603809
 20
60.894423
 30
0.0
 10
101.109222
 20
60.594978
 30
0.0
 10
102.417082
 20
61.136712
 30
0.0
  0
SPLINE
  5
129
100
AcDbEntity
  8
Panel
 62
7
100
AcDbSpline
 70
8
 71
3
 72
8
 73
4
 74
0
 40
0
 40
0
 40
0
 40
0
 40
1
 40
1
 40
1
 40
1
 10
102.417082
 20
61.136712
 30
0.0
 10
103.724942
 20
61.678445
 30
0.0
 10
104.577690
 20
62.954672
 30
0.0
 10
104.577690
 20
64.370290
 30
0.0
  0
SPLINE
  5
12a
100
AcDbEntity
  8
Panel
 62
7
100
AcDbSpline
 70
8
 71
3
 72
8
 73
4
 74
0
 40
0
 40
0
 40
0
 40
0
 40
1
 40
1
 40
1
 40
1
 10
104.577690
 20
64.370290
 30
0.0
 10
104.577690
 20
65.298548
 30
0.0
 10
104.208941
 20
66.188786
 30
0.0
 10
103.552564
 20
66.845164
 30
0.0
  0
SPLINE
  5
12b
100
AcDbEntity
  8
Panel
 62
7
100
AcDbSpline
 70
8
 71
3
 72
8
 73
4
 74
0
 40
0
 40
0
 40
0
 40
0
 40
1
 40
1
 40
1
 40
1
 10
103.552564
 20
66.845164
 30
0.0
 10
102.896186
 20
67.501541
 30
0.0
 10
102.005948
 20
67.870290
 30
0.0
 10
101.077690
 20
67.870290
 30
0.0
  0
LWPOLYLINE
  5
12c
100
AcDbEntity
  8
Panel
 62
7
100
AcDbPolyline
 90
1
 70
1
 10
120.175060
 20
67.870290
 30
0.0
  0
SPLINE
  5
12d
100
AcDbEntity
  8
Panel
 62
7
100
AcDbSpline
 70
8
 71
3
 72
8
 73
4
 74
0
 40
0
 40
0
 40
0
 40
0
 40
1
 40
1
 40
1
 40
1
 10
73.667404
 20
126.943146
 30
0.0
 10
73.667404
 20
128.358764
 30
0.0
 10
72.814656
 20
129.634991
 30
0.0
 10
71.506796
 20
130.176724
 30
0.0
  0
SPLINE
  5
12e
100
AcDbEntity
  8
Panel
 62
7
100
AcDbSpline
 70
8
 71
3
 72
8
 73
4
 74
0
 40
0
 40
0
 40
0
 40
0
 40
1
 40
1
 40
1
 40
1
 10
71.506796
 20
130.176724
 30
0.0
 10
70.198936
 20
130.718458
 30
0.0
 10
68.693523
 20
130.419013
 30
0.0
 10
67.692530
 20
129.418020
 30
0.0
  0
SPLINE
  5
12f
100
AcDbEntity
  8
Panel
 62
7
100
AcDbSpline
 70
8
 71
3
 72
8
 73
4
 74
0
 40
0
 40
0
 40
0
 40
0
 40
1
 40
1
 40
1
 40
1
 10
67.692530
 20
129.418020
 30
0.0
 10
66.691537
 20
128.417027
 30
0.0
 10
66.392092
 20
126.911614
 30
0.0
 10
66.933826
 20
125.603754
 30
0.0
  0
SPLINE
  5
130
100
AcDbEntity
  8
Panel
 62
7
100
AcDbSpline
 70
8
 71
3
 72
8
 73
4
 74
0
 40
0
 40
0
 40
0
 40
0
 40
1
 40
1
 40
1
 40
1
 10
66.933826
 20
125.603754
 30
0.0
 10
67.475559
 20
124.295894
 30
0.0
 10
68.751786
 20
123.443146
 30
0.0
 10
70.167404
 20
123.443146
 30
0.0
  0
SPLINE
  5
131
100
AcDbEntity
  8
Panel
 62
7
100
AcDbSpline
 70
8
 71
3
 72
8
 73
4
 74
0
 40
0
 40
0
 40
0
 40
0
 40
1
 40
1
 40
1
 40
1
 10
70.167404
 20
123.443146
 30
0.0
 10
72.100401
 20
123.443146
 30
0.0
 10
73.667404
 20
125.010149
 30
0.0
 10
73.667404
 20
126.943146
 30
0.0
  0
LWPOLYLINE
  5
132
100
AcDbEntity
  8
Panel
 62
7
100
AcDbPolyline
 90
1
 70
1
 10
101.077690
 20
67.870290
 30
0.0
  0
LWPOLYLINE
  5
133
100
AcDbEntity
  8
Panel
 62
7
100
AcDbPolyline
 90
1
 70
1
 10
73.667404
 20
126.943146
 30
0.0
  0
SPLINE
  5
134
100
AcDbEntity
  8
Panel
 62
7
100
AcDbSpline
 70
8
 71
3
 72
8
 73
4
 74
0
 40
0
 40
0
 40
0
 40
0
 40
1
 40
1
 40
1
 40
1
 10
81.503769
 20
91.191250
 30
0.0
 10
80.391498
 20
91.191250
 30
0.0
 10
79.388748
 20
90.521234
 30
0.0
 10
78.963100
 20
89.493629
 30
0.0
  0
SPLINE
  5
135
100
AcDbEntity
  8
Panel
 62
7
100
AcDbSpline
 70
8
 71
3
 72
8
 73
4
 74
0
 40
0
 40
0
 40
0
 40
0
 40
1
 40
1
 40
1
 40
1
 10
78.963100
 20
89.493629
 30
0.0
 10
78.537453
 20
88.466025
 30
0.0
 10
78.772731
 20
87.283201
 30
0.0
 10
79.559225
 20
86.496706
 30
0.0
  0
SPLINE
  5
136
100
AcDbEntity
  8
Panel
 62
7
100
AcDbSpline
 70
8
 71
3
 72
8
 73
4
 74
0
 40
0
 40
0
 40
0
 40
0
 40
1
 40
1
 40
1
 40
1
 10
79.559225
 20
86.496706
 30
0.0
 10
80.345720
 20
85.710212
 30
0.0
 10
81.528544
 20
85.474934
 30
0.0
 10
82.556148
 20
85.900581
 30
0.0
  0
SPLINE
  5
137
100
AcDbEntity
  8
Panel
 62
7
100
AcDbSpline
 70
8
 71
3
 72
8
 73
4
 74
0
 40
0
 40
0
 40
0
 40
0
 40
1
 40
1
 40
1
 40
1
 10
82.556148
 20
85.900581
 30
0.0
 10
83.583753
 20
86.326229
 30
0.0
 10
84.253769
 20
87.328979
 30
0.0
 10
84.253769
 20
88.441250
 30
0.0
  0
SPLINE
  5
138
100
AcDbEntity
  8
Panel
 62
7
100
AcDbSpline
 70
8
 71
3
 72
8
 73
4
 74
0
 40
0
 40
0
 40
0
 40
0
 40
1
 40
1
 40
1
 40
1
 10
84.253769
 20
88.441250
 30
0.0
 10
84.253769
 20
89.170595
 30
0.0
 10
83.964038
 20
89.870069
 30
0.0
 10
83.448313
 20
90.385794
 30
0.0
  0
SPLINE
  5
139
100
AcDbEntity
  8
Panel
 62
7
100
AcDbSpline
 70
8
 71
3
 72
8
 73
4
 74
0
 40
0
 40
0
 40
0
 40
0
 40
1
 40
1
 40
1
 40
1
 10
83.448313
 20
90.385794
 30
0.0
 10
82.932588
 20
90.901519
 30
0.0
 10
82.233114
 20
91.191250
 30
0.0
 10
81.503769
 20
91.191250
 30
0.0
  0
LWPOLYLINE
  5
13a
100
AcDbEntity
  8
Panel
 62
7
100
AcDbPolyline
 90
4
 70
1
 10
77.684029
 20
110.814491
 30
0.0
 10
85.797835
 20
110.814491
 30
0.0
 10
85.797835
 20
102.700685
 30
0.0
 10
77.684029
 20
102.700685
 30
0.0
  0
SPLINE
  5
13b
100
AcDbEntity
  8
Panel
 62
7
100
AcDbSpline
 70
8
 71
3
 72
8
 73
4
 74
0
 40
0
 40
0
 40
0
 40
0
 40
1
 40
1
 40
1
 40
1
 10
194.154650
 20
123.333593
 30
0.0
 10
193.471676
 20
123.333593
 30
0.0
 10
192.855953
 20
122.922180
 30
0.0
 10
192.594590
 20
122.291195
 30
0.0
  0
SPLINE
  5
13c
100
AcDbEntity
  8
Panel
 62
7
100
AcDbSpline
 70
8
 71
3
 72
8
 73
4
 74
0
 40
0
 40
0
 40
0
 40
0
 40
1
 40
1
 40
1
 40
1
 10
192.594590
 20
122.291195
 30
0.0
 10
192.333228
 20
121.660210
 30
0.0
 10
192.477697
 20
120.933914
 30
0.0
 10
192.960632
 20
120.450979
 30
0.0
  0
SPLINE
  5
13d
100
AcDbEntity
  8
Panel
 62
7
100
AcDbSpline
 70
8
 71
3
 72
8
 73
4
 74
0
 40
0
 40
0
 40
0
 40
0
 40
1
 40
1
 40
1
 40
1
 10
192.960632
 20
120.450979
 30
0.0
 10
193.443567
 20
119.968044
 30
0.0
 10
194.169863
 20
119.823575
 30
0.0
 10
194.800848
 20
120.084937
 30
0.0
  0
SPLINE
  5
13e
100
AcDbEntity
  8
Panel
 62
7
100
AcDbSpline
 70
8
 71
3
 72
8
 73
4
 74
0
 40
0
 40
0
 40
0
 40
0
 40
1
 40
1
 40
1
 40
1
 10
194.800848
 20
120.084937
 30
0.0
 10
195.431833
 20
120.346300
 30
0.0
 10
195.843246
 20
120.962024
 30
0.0
 10
195.843246
 20
121.644997
 30
0.0
  0
SPLINE
  5
13f
100
AcDbEntity
  8
Panel
 62
7
100
AcDbSpline
 70
8
 71
3
 72
8
 73
4
 74
0
 40
0
 40
0
 40
0
 40
0
 40
1
 40
1
 40
1
 40
1
 10
195.843246
 20
121.644997
 30
0.0
 10
195.843246
 20
122.092841
 30
0.0
 10
195.665341
 20
122.522342
 30
0.0
 10
195.348668
 20
122.839015
 30
0.0
  0
SPLINE
  5
140
100
AcDbEntity
  8
Panel
 62
7
100
AcDbSpline
 70
8
 71
3
 72
8
 73
4
 74
0
 40
0
 40
0
 40
0
 40
0
 40
1
 40
1
 40
1
 40
1
 10
195.348668
 20
122.839015
 30
0.0
 10
195.031995
 20
123.155688
 30
0.0
 10
194.602494
 20
123.333593
 30
0.0
 10
194.154650
 20
123.333593
 30
0.0
  0
LWPOLYLINE
  5
141
100
AcDbEntity
  8
Panel
 62
7
100
AcDbPolyline
 90
1
 70
1
 10
81.503769
 20
91.191250
 30
0.0
  0
SPLINE
  5
142
100
AcDbEntity
  8
Panel
 62
7
100
AcDbSpline
 70
8
 71
3
 72
8
 73
4
 74
0
 40
0
 40
0
 40
0
 40
0
 40
1
 40
1
 40
1
 40
1
 10
70.029892
 20
152.335926
 30
0.0
 10
68.513159
 20
152.335926
 30
0.0
 10
67.145773
 20
151.422268
 30
0.0
 10
66.565344
 20
150.020989
 30
0.0
  0
SPLINE
  5
143
100
AcDbEntity
  8
Panel
 62
7
100
AcDbSpline
 70
8
 71
3
 72
8
 73
4
 74
0
 40
0
 40
0
 40
0
 40
0
 40
1
 40
1
 40
1
 40
1
 10
66.565344
 20
150.020989
 30
0.0
 10
65.984915
 20
148.619710
 30
0.0
 10
66.305749
 20
147.006768
 30
0.0
 10
67.378242
 20
145.934276
 30
0.0
  0
SPLINE
  5
144
100
AcDbEntity
  8
Panel
 62
7
100
AcDbSpline
 70
8
 71
3
 72
8
 73
4
 74
0
 40
0
 40
0
 40
0
 40
0
 40
1
 40
1
 40
1
 40
1
 10
67.378242
 20
145.934276
 30
0.0
 10
68.450734
 20
144.861783
 30
0.0
 10
70.063676
 20
144.540949
 30
0.0
 10
71.464955
 20
145.121378
 30
0.0
  0
SPLINE
  5
145
100
AcDbEntity
  8
Panel
 62
7
100
AcDbSpline
 70
8
 71
3
 72
8
 73
4
 74
0
 40
0
 40
0
 40
0
 40
0
 40
1
 40
1
 40
1
 40
1
 10
71.464955
 20
145.121378
 30
0.0
 10
72.866234
 20
145.701807
 30
0.0
 10
73.779892
 20
147.069193
 30
0.0
 10
73.779892
 20
148.585926
 30
0.0
  0
SPLINE
  5
146
100
AcDbEntity
  8
Panel
 62
7
100
AcDbSpline
 70
8
 71
3
 72
8
 73
4
 74
0
 40
0
 40
0
 40
0
 40
0
 40
1
 40
1
 40
1
 40
1
 10
73.779892
 20
148.585926
 30
0.0
 10
73.779892
 20
149.580488
 30
0.0
 10
73.384804
 20
150.534315
 30
0.0
 10
72.681542
 20
151.237576
 30
0.0
  0
SPLINE
  5
147
100
AcDbEntity
  8
Panel
 62
7
100
AcDbSpline
 70
8
 71
3
 72
8
 73
4
 74
0
 40
0
 40
0
 40
0
 40
0
 40
1
 40
1
 40
1
 40
1
 10
72.681542
 20
151.237576
 30
0.0
 10
71.978281
 20
151.940838
 30
0.0
 10
71.024454
 20
152.335926
 30
0.0
 10
70.029892
 20
152.335926
 30
0.0
  0
LWPOLYLINE
  5
148
100
AcDbEntity
  8
Panel
 62
7
100
AcDbPolyline
 90
1
 70
1
 10
194.154650
 20
123.333593
 30
0.0
  0
SPLINE
  5
149
100
AcDbEntity
  8
Panel
 62
7
100
AcDbSpline
 70
8
 71
3
 72
8
 73
4
 74
0
 40
0
 40
0
 40
0
 40
0
 40
1
 40
1
 40
1
 40
1
 10
220.893710
 20
147.737903
 30
0.0
 10
220.308304
 20
147.737903
 30
0.0
 10
219.780541
 20
147.385263
 30
0.0
 10
219.556516
 20
146.844419
 30
0.0
  0
SPLINE
  5
14a
100
AcDbEntity
  8
Panel
 62
7
100
AcDbSpline
 70
8
 71
3
 72
8
 73
4
 74
0
 40
0
 40
0
 40
0
 40
0
 40
1
 40
1
 40
1
 40
1
 10
219.556516
 20
146.844419
 30
0.0
 10
219.332491
 20
146.303574
 30
0.0
 10
219.456322
 20
145.681035
 30
0.0
 10
219.870266
 20
145.267091
 30
0.0
  0
SPLINE
  5
14b
100
AcDbEntity
  8
Panel
 62
7
100
AcDbSpline
 70
8
 71
3
 72
8
 73
4
 74
0
 40
0
 40
0
 40
0
 40
0
 40
1
 40
1
 40
1
 40
1
 10
219.870266
 20
145.267091
 30
0.0
 10
220.284210
 20
144.853147
 30
0.0
 10
220.906749
 20
144.729316
 30
0.0
 10
221.447594
 20
144.953341
 30
0.0
  0
SPLINE
  5
14c
100
AcDbEntity
  8
Panel
 62
7
100
AcDbSpline
 70
8
 71
3
 72
8
 73
4
 74
0
 40
0
 40
0
 40
0
 40
0
 40
1
 40
1
 40
1
 40
1
 10
221.447594
 20
144.953341
 30
0.0
 10
221.988438
 20
145.177366
 30
0.0
 10
222.341078
 20
145.705129
 30
0.0
 10
222.341078
 20
146.290535
 30
0.0
  0
SPLINE
  5
14d
100
AcDbEntity
  8
Panel
 62
7
100
AcDbSpline
 70
8
 71
3
 72
8
 73
4
 74
0
 40
0
 40
0
 40
0
 40
0
 40
1
 40
1
 40
1
 40
1
 10
222.341078
 20
146.290535
 30
0.0
 10
222.341078
 20
146.674401
 30
0.0
 10
222.188588
 20
147.042545
 30
0.0
 10
221.917154
 20
147.313979
 30
0.0
  0
SPLINE
  5
14e
100
AcDbEntity
  8
Panel
 62
7
100
AcDbSpline
 70
8
 71
3
 72
8
 73
4
 74
0
 40
0
 40
0
 40
0
 40
0
 40
1
 40
1
 40
1
 40
1
 10
221.917154
 20
147.313979
 30
0.0
 10
221.645720
 20
147.585413
 30
0.0
 10
221.277576
 20
147.737903
 30
0.0
 10
220.893710
 20
147.737903
 30
0.0
  0
LWPOLYLINE
  5
14f
100
AcDbEntity
  8
Panel
 62
7
100
AcDbPolyline
 90
1
 70
1
 10
70.029892
 20
152.335926
 30
0.0
  0
SPLINE
  5
150
100
AcDbEntity
  8
Panel
 62
7
100
AcDbSpline
 70
8
 71
3
 72
8
 73
4
 74
0
 40
0
 40
0
 40
0
 40
0
 40
1
 40
1
 40
1
 40
1
 10
220.842380
 20
135.457868
 30
0.0
 10
220.159406
 20
135.457868
 30
0.0
 10
219.543683
 20
135.046455
 30
0.0
 10
219.282320
 20
134.415470
 30
0.0
  0
SPLINE
  5
151
100
AcDbEntity
  8
Panel
 62
7
100
AcDbSpline
 70
8
 71
3
 72
8
 73
4
 74
0
 40
0
 40
0
 40
0
 40
0
 40
1
 40
1
 40
1
 40
1
 10
219.282320
 20
134.415470
 30
0.0
 10
219.020958
 20
133.784485
 30
0.0
 10
219.165427
 20
133.058189
 30
0.0
 10
219.648362
 20
132.575254
 30
0.0
  0
SPLINE
  5
152
100
AcDbEntity
  8
Panel
 62
7
100
AcDbSpline
 70
8
 71
3
 72
8
 73
4
 74
0
 40
0
 40
0
 40
0
 40
0
 40
1
 40
1
 40
1
 40
1
 10
219.648362
 20
132.575254
 30
0.0
 10
220.131297
 20
132.092319
 30
0.0
 10
220.857593
 20
131.947850
 30
0.0
 10
221.488578
 20
132.209212
 30
0.0
  0
SPLINE
  5
153
100
AcDbEntity
  8
Panel
 62
7
100
AcDbSpline
 70
8
 71
3
 72
8
 73
4
 74
0
 40
0
 40
0
 40
0
 40
0
 40
1
 40
1
 40
1
 40
1
 10
221.488578
 20
132.209212
 30
0.0
 10
222.119563
 20
132.470575
 30
0.0
 10
222.530976
 20
133.086299
 30
0.0
 10
222.530976
 20
133.769272
 30
0.0
  0
SPLINE
  5
154
100
AcDbEntity
  8
Panel
 62
7
100
AcDbSpline
 70
8
 71
3
 72
8
 73
4
 74
0
 40
0
 40
0
 40
0
 40
0
 40
1
 40
1
 40
1
 40
1
 10
222.530976
 20
133.769272
 30
0.0
 10
222.530976
 20
134.217116
 30
0.0
 10
222.353071
 20
134.646617
 30
0.0
 10
222.036398
 20
134.963290
 30
0.0
  0
SPLINE
  5
155
100
AcDbEntity
  8
Panel
 62
7
100
AcDbSpline
 70
8
 71
3
 72
8
 73
4
 74
0
 40
0
 40
0
 40
0
 40
0
 40
1
 40
1
 40
1
 40
1
 10
222.036398
 20
134.963290
 30
0.0
 10
221.719725
 20
135.279963
 30
0.0
 10
221.290224
 20
135.457868
 30
0.0
 10
220.842380
 20
135.457868
 30
0.0
  0
LWPOLYLINE
  5
156
100
AcDbEntity
  8
Panel
 62
7
100
AcDbPolyline
 90
1
 70
1
 10
220.893710
 20
147.737903
 30
0.0
  0
SPLINE
  5
157
100
AcDbEntity
  8
Panel
 62
7
100
AcDbSpline
 70
8
 71
3
 72
8
 73
4
 74
0
 40
0
 40
0
 40
0
 40
0
 40
1
 40
1
 40
1
 40
1
 10
55.631172
 20
157.629646
 30
0.0
 10
55.226710
 20
157.629646
 30
0.0
 10
54.862073
 20
157.386004
 30
0.0
 10
54.707292
 20
157.012329
 30
0.0
  0
SPLINE
  5
158
100
AcDbEntity
  8
Panel
 62
7
100
AcDbSpline
 70
8
 71
3
 72
8
 73
4
 74
0
 40
0
 40
0
 40
0
 40
0
 40
1
 40
1
 40
1
 40
1
 10
54.707292
 20
157.012329
 30
0.0
 10
54.552511
 20
156.638655
 30
0.0
 10
54.638067
 20
156.208537
 30
0.0
 10
54.924065
 20
155.922539
 30
0.0
  0
SPLINE
  5
159
100
AcDbEntity
  8
Panel
 62
7
100
AcDbSpline
 70
8
 71
3
 72
8
 73
4
 74
0
 40
0
 40
0
 40
0
 40
0
 40
1
 40
1
 40
1
 40
1
 10
54.924065
 20
155.922539
 30
0.0
 10
55.210063
 20
155.636541
 30
0.0
 10
55.640181
 20
155.550985
 30
0.0
 10
56.013855
 20
155.705766
 30
0.0
  0
SPLINE
  5
15a
100
AcDbEntity
  8
Panel
 62
7
100
AcDbSpline
 70
8
 71
3
 72
8
 73
4
 74
0
 40
0
 40
0
 40
0
 40
0
 40
1
 40
1
 40
1
 40
1
 10
56.013855
 20
155.705766
 30
0.0
 10
56.387530
 20
155.860547
 30
0.0
 10
56.631172
 20
156.225184
 30
0.0
 10
56.631172
 20
156.629646
 30
0.0
  0
SPLINE
  5
15b
100
AcDbEntity
  8
Panel
 62
7
100
AcDbSpline
 70
8
 71
3
 72
8
 73
4
 74
0
 40
0
 40
0
 40
0
 40
0
 40
1
 40
1
 40
1
 40
1
 10
56.631172
 20
156.629646
 30
0.0
 10
56.631172
 20
156.894862
 30
0.0
 10
56.525815
 20
157.149216
 30
0.0
 10
56.338279
 20
157.336753
 30
0.0
  0
SPLINE
  5
15c
100
AcDbEntity
  8
Panel
 62
7
100
AcDbSpline
 70
8
 71
3
 72
8
 73
4
 74
0
 40
0
 40
0
 40
0
 40
0
 40
1
 40
1
 40
1
 40
1
 10
56.338279
 20
157.336753
 30
0.0
 10
56.150742
 20
157.524289
 30
0.0
 10
55.896388
 20
157.629646
 30
0.0
 10
55.631172
 20
157.629646
 30
0.0
  0
LWPOLYLINE
  5
15d
100
AcDbEntity
  8
Panel
 62
7
100
AcDbPolyline
 90
1
 70
1
 10
220.842380
 20
135.457868
 30
0.0
  0
SPLINE
  5
15e
100
AcDbEntity
  8
Panel
 62
7
100
AcDbSpline
 70
8
 71
3
 72
8
 73
4
 74
0
 40
0
 40
0
 40
0
 40
0
 40
1
 40
1
 40
1
 40
1
 10
235.653640
 20
54.637660
 30
0.0
 10
235.249178
 20
54.637660
 30
0.0
 10
234.884541
 20
54.394018
 30
0.0
 10
234.729760
 20
54.020343
 30
0.0
  0
SPLINE
  5
15f
100
AcDbEntity
  8
Panel
 62
7
100
AcDbSpline
 70
8
 71
3
 72
8
 73
4
 74
0
 40
0
 40
0
 40
0
 40
0
 40
1
 40
1
 40
1
 40
1
 10
234.729760
 20
54.020343
 30
0.0
 10
234.574979
 20
53.646669
 30
0.0
 10
234.660535
 20
53.216551
 30
0.0
 10
234.946533
 20
52.930553
 30
0.0
  0
SPLINE
  5
160
100
AcDbEntity
  8
Panel
 62
7
100
AcDbSpline
 70
8
 71
3
 72
8
 73
4
 74
0
 40
0
 40
0
 40
0
 40
0
 40
1
 40
1
 40
1
 40
1
 10
234.946533
 20
52.930553
 30
0.0
 10
235.232531
 20
52.644555
 30
0.0
 10
235.662649
 20
52.558999
 30
0.0
 10
236.036323
 20
52.713780
 30
0.0
  0
SPLINE
  5
161
100
AcDbEntity
  8
Panel
 62
7
100
AcDbSpline
 70
8
 71
3
 72
8
 73
4
 74
0
 40
0
 40
0
 40
0
 40
0
 40
1
 40
1
 40
1
 40
1
 10
236.036323
 20
52.713780
 30
0.0
 10
236.409998
 20
52.868561
 30
0.0
 10
236.653640
 20
53.233198
 30
0.0
 10
236.653640
 20
53.637660
 30
0.0
  0
SPLINE
  5
162
100
AcDbEntity
  8
Panel
 62
7
100
AcDbSpline
 70
8
 71
3
 72
8
 73
4
 74
0
 40
0
 40
0
 40
0
 40
0
 40
1
 40
1
 40
1
 40
1
 10
236.653640
 20
53.637660
 30
0.0
 10
236.653640
 20
53.902876
 30
0.0
 10
236.548283
 20
54.157230
 30
0.0
 10
236.360747
 20
54.344767
 30
0.0
  0
SPLINE
  5
163
100
AcDbEntity
  8
Panel
 62
7
100
AcDbSpline
 70
8
 71
3
 72
8
 73
4
 74
0
 40
0
 40
0
 40
0
 40
0
 40
1
 40
1
 40
1
 40
1
 10
236.360747
 20
54.344767
 30
0.0
 10
236.173210
 20
54.532303
 30
0.0
 10
235.918856
 20
54.637660
 30
0.0
 10
235.653640
 20
54.637660
 30
0.0
  0
LWPOLYLINE
  5
164
100
AcDbEntity
  8
Panel
 62
7
100
AcDbPolyline
 90
1
 70
1
 10
55.631172
 20
157.629646
 30
0.0
  0
SPLINE
  5
165
100
AcDbEntity
  8
Panel
 62
7
100
AcDbSpline
 70
8
 71
3
 72
8
 73
4
 74
0
 40
0
 40
0
 40
0
 40
0
 40
1
 40
1
 40
1
 40
1
 10
235.601360
 20
157.631359
 30
0.0
 10
235.196898
 20
157.631359
 30
0.0
 10
234.832261
 20
157.387717
 30
0.0
 10
234.677480
 20
157.014042
 30
0.0
  0
SPLINE
  5
166
100
AcDbEntity
  8
Panel
 62
7
100
AcDbSpline
 70
8
 71
3
 72
8
 73
4
 74
0
 40
0
 40
0
 40
0
 40
0
 40
1
 40
1
 40
1
 40
1
 10
234.677480
 20
157.014042
 30
0.0
 10
234.522699
 20
156.640368
 30
0.0
 10
234.608255
 20
156.210250
 30
0.0
 10
234.894253
 20
155.924252
 30
0.0
  0
SPLINE
  5
167
100
AcDbEntity
  8
Panel
 62
7
100
AcDbSpline
 70
8
 71
3
 72
8
 73
4
 74
0
 40
0
 40
0
 40
0
 40
0
 40
1
 40
1
 40
1
 40
1
 10
234.894253
 20
155.924252
 30
0.0
 10
235.180251
 20
155.638254
 30
0.0
 10
235.610369
 20
155.552698
 30
0.0
 10
235.984043
 20
155.707479
 30
0.0
  0
SPLINE
  5
168
100
AcDbEntity
  8
Panel
 62
7
100
AcDbSpline
 70
8
 71
3
 72
8
 73
4
 74
0
 40
0
 40
0
 40
0
 40
0
 40
1
 40
1
 40
1
 40
1
 10
235.984043
 20
155.707479
 30
0.0
 10
236.357718
 20
155.862260
 30
0.0
 10
236.601360
 20
156.226897
 30
0.0
 10
236.601360
 20
156.631359
 30
0.0
  0
SPLINE
  5
169
100
AcDbEntity
  8
Panel
 62
7
100
AcDbSpline
 70
8
 71
3
 72
8
 73
4
 74
0
 40
0
 40
0
 40
0
 40
0
 40
1
 40
1
 40
1
 40
1
 10
236.601360
 20
156.631359
 30
0.0
 10
236.601360
 20
156.896575
 30
0.0
 10
236.496003
 20
157.150929
 30
0.0
 10
236.308467
 20
157.338466
 30
0.0
  0
SPLINE
  5
16a
100
AcDbEntity
  8
Panel
 62
7
100
AcDbSpline
 70
8
 71
3
 72
8
 73
4
 74
0
 40
0
 40
0
 40
0
 40
0
 40
1
 40
1
 40
1
 40
1
 10
236.308467
 20
157.338466
 30
0.0
 10
236.120930
 20
157.526002
 30
0.0
 10
235.866576
 20
157.631359
 30
0.0
 10
235.601360
 20
157.631359
 30
0.0
  0
LWPOLYLINE
  5
16b
100
AcDbEntity
  8
Panel
 62
7
100
AcDbPolyline
 90
1
 70
1
 10
235.653640
 20
54.637660
 30
0.0
  0
SPLINE
  5
16c
100
AcDbEntity
  8
Panel
 62
7
100
AcDbSpline
 70
8
 71
3
 72
8
 73
4
 74
0
 40
0
 40
0
 40
0
 40
0
 40
1
 40
1
 40
1
 40
1
 10
55.629463
 20
54.634220
 30
0.0
 10
55.225001
 20
54.634220
 30
0.0
 10
54.860364
 20
54.390578
 30
0.0
 10
54.705583
 20
54.016903
 30
0.0
  0
SPLINE
  5
16d
100
AcDbEntity
  8
Panel
 62
7
100
AcDbSpline
 70
8
 71
3
 72
8
 73
4
 74
0
 40
0
 40
0
 40
0
 40
0
 40
1
 40
1
 40
1
 40
1
 10
54.705583
 20
54.016903
 30
0.0
 10
54.550802
 20
53.643229
 30
0.0
 10
54.636358
 20
53.213111
 30
0.0
 10
54.922356
 20
52.927113
 30
0.0
  0
SPLINE
  5
16e
100
AcDbEntity
  8
Panel
 62
7
100
AcDbSpline
 70
8
 71
3
 72
8
 73
4
 74
0
 40
0
 40
0
 40
0
 40
0
 40
1
 40
1
 40
1
 40
1
 10
54.922356
 20
52.927113
 30
0.0
 10
55.208354
 20
52.641115
 30
0.0
 10
55.638472
 20
52.555559
 30
0.0
 10
56.012146
 20
52.710340
 30
0.0
  0
SPLINE
  5
16f
100
AcDbEntity
  8
Panel
 62
7
100
AcDbSpline
 70
8
 71
3
 72
8
 73
4
 74
0
 40
0
 40
0
 40
0
 40
0
 40
1
 40
1
 40
1
 40
1
 10
56.012146
 20
52.710340
 30
0.0
 10
56.385821
 20
52.865121
 30
0.0
 10
56.629463
 20
53.229758
 30
0.0
 10
56.629463
 20
53.634220
 30
0.0
  0
SPLINE
  5
170
100
AcDbEntity
  8
Panel
 62
7
100
AcDbSpline
 70
8
 71
3
 72
8
 73
4
 74
0
 40
0
 40
0
 40
0
 40
0
 40
1
 40
1
 40
1
 40
1
 10
56.629463
 20
53.634220
 30
0.0
 10
56.629463
 20
53.899436
 30
0.0
 10
56.524106
 20
54.153790
 30
0.0
 10
56.336570
 20
54.341327
 30
0.0
  0
SPLINE
  5
171
100
AcDbEntity
  8
Panel
 62
7
100
AcDbSpline
 70
8
 71
3
 72
8
 73
4
 74
0
 40
0
 40
0
 40
0
 40
0
 40
1
 40
1
 40
1
 40
1
 10
56.336570
 20
54.341327
 30
0.0
 10
56.149033
 20
54.528863
 30
0.0
 10
55.894679
 20
54.634220
 30
0.0
 10
55.629463
 20
54.634220
 30
0.0
  0
LWPOLYLINE
  5
172
100
AcDbEntity
  8
Panel
 62
7
100
AcDbPolyline
 90
1
 70
1
 10
235.601360
 20
157.631359
 30
0.0
  0
LWPOLYLINE
  5
173
100
AcDbEntity
  8
Panel
 62
7
100
AcDbPolyline
 90
1
 70
1
 10
55.629463
 20
54.634220
 30
0.0
  0
SPLINE
  5
174
100
AcDbEntity
  8
Panel
 62
7
100
AcDbSpline
 70
8
 71
3
 72
8
 73
4
 74
0
 40
0
 40
0
 40
0
 40
0
 40
1
 40
1
 40
1
 40
1
 10
220.879930
 20
121.025703
 30
0.0
 10
218.946933
 20
121.025703
 30
0.0
 10
217.379930
 20
119.458700
 30
0.0
 10
217.379930
 20
117.525703
 30
0.0
  0
SPLINE
  5
175
100
AcDbEntity
  8
Panel
 62
7
100
AcDbSpline
 70
8
 71
3
 72
8
 73
4
 74
0
 40
0
 40
0
 40
0
 40
0
 40
1
 40
1
 40
1
 40
1
 10
217.379930
 20
117.525703
 30
0.0
 10
217.379930
 20
115.592706
 30
0.0
 10
218.946933
 20
114.025703
 30
0.0
 10
220.879930
 20
114.025703
 30
0.0
  0
SPLINE
  5
176
100
AcDbEntity
  8
Panel
 62
7
100
AcDbSpline
 70
8
 71
3
 72
8
 73
4
 74
0
 40
0
 40
0
 40
0
 40
0
 40
1
 40
1
 40
1
 40
1
 10
220.879930
 20
114.025703
 30
0.0
 10
222.812927
 20
114.025703
 30
0.0
 10
224.379930
 20
115.592706
 30
0.0
 10
224.379930
 20
117.525703
 30
0.0
  0
SPLINE
  5
177
100
AcDbEntity
  8
Panel
 62
7
100
AcDbSpline
 70
8
 71
3
 72
8
 73
4
 74
0
 40
0
 40
0
 40
0
 40
0
 40
1
 40
1
 40
1
 40
1
 10
224.379930
 20
117.525703
 30
0.0
 10
224.379930
 20
118.453961
 30
0.0
 10
224.011181
 20
119.344199
 30
0.0
 10
223.354804
 20
120.000577
 30
0.0
  0
SPLINE
  5
178
100
AcDbEntity
  8
Panel
 62
7
100
AcDbSpline
 70
8
 71
3
 72
8
 73
4
 74
0
 40
0
 40
0
 40
0
 40
0
 40
1
 40
1
 40
1
 40
1
 10
223.354804
 20
120.000577
 30
0.0
 10
222.698426
 20
120.656954
 30
0.0
 10
221.808188
 20
121.025703
 30
0.0
 10
220.879930
 20
121.025703
 30
0.0
  0
LWPOLYLINE
  5
179
100
AcDbEntity
  8
Panel
 62
7
100
AcDbPolyline
 90
4
 70
1
 10
51.731598
 20
160.529217
 30
0.0
 10
239.530028
 20
160.529217
 30
0.0
 10
239.530028
 20
49.730797
 30
0.0
 10
51.731598
 20
49.730797
 30
0.0
  0
LWPOLYLINE
  5
17a
100
AcDbEntity
  8
Panel
 62
7
100
AcDbPolyline
 90
1
 70
1
 10
220.879930
 20
121.025703
 30
0.0
  0
ENDSEC
  0
SECTION
  2
OBJECTS
  0
DICTIONARY
  5
C
330
0
100
AcDbDictionary
  3
ACAD_GROUP
350
D
  3
ACAD_MLINESTYLE
350
17
  0
DICTIONARY
  5
D
330
C
100
AcDbDictionary
  0
DICTIONARY
  5
1A
330
C
100
AcDbDictionary
  0
DICTIONARY
  5
17
330
C
100
AcDbDictionary
  3
STANDARD
350
18
  0
DICTIONARY
  5
19
330
C
100
AcDbDictionary
  0
ENDSEC
  0
EOF
